<?xml version="1.0" encoding="UTF-8"?>
<svg id="PALETTE" xmlns="http://www.w3.org/2000/svg" viewBox="0 0 283.46 283.46">
  <defs>
    <style>
      .cls-1 {
        fill: #ce318a;
      }

      .cls-2 {
        fill: #1d1d1b;
      }
    </style>
  </defs>
  <path class="cls-2" d="M0,33.08h42.28c27.29,0,45.74,1.25,55.36,3.76,9.62,2.51,16.93,6.62,21.94,12.35,5.01,5.73,8.14,12.1,9.4,19.13,1.25,7.03,1.88,20.83,1.88,41.41v76.1c0,19.51-.92,32.55-2.75,39.12-1.84,6.58-5.03,11.72-9.6,15.43-4.56,3.71-10.2,6.31-16.91,7.78-6.71,1.48-16.82,2.21-30.33,2.21H0V33.08ZM56.51,70.26v142.94c8.14,0,13.15-1.63,15.03-4.9,1.88-3.27,2.82-12.15,2.82-26.64v-84.42c0-9.84-.31-16.15-.94-18.92-.63-2.77-2.06-4.81-4.29-6.11-2.24-1.3-6.44-1.95-12.62-1.95Z"/>
  <path class="cls-1" d="M151.93,33.08h56.37c17.8,0,31.29,1.39,40.47,4.16,9.17,2.77,16.58,8.38,22.21,16.83,5.64,8.45,8.46,22.06,8.46,40.84,0,12.7-1.99,21.55-5.97,26.56-3.98,5.01-11.83,8.85-23.55,11.53,13.06,2.95,21.92,7.86,26.57,14.71,4.65,6.85,6.98,17.35,6.98,31.49v20.14c0,14.68-1.68,25.56-5.03,32.63-3.36,7.07-8.7,11.91-16.04,14.5-7.34,2.6-22.37,3.89-45.1,3.89h-65.36V33.08ZM208.44,70.26v48.32c2.42-.09,4.29-.13,5.64-.13,5.55,0,9.08-1.36,10.6-4.09,1.52-2.73,2.28-10.54,2.28-23.42,0-6.8-.63-11.56-1.88-14.29-1.25-2.73-2.89-4.45-4.9-5.17-2.01-.72-5.93-1.12-11.74-1.21ZM208.44,152.4v60.8c7.96-.27,13.04-1.52,15.23-3.76,2.19-2.24,3.29-7.74,3.29-16.51v-20.27c0-9.31-.99-14.94-2.95-16.91-1.97-1.97-7.16-3.09-15.57-3.36Z"/>
</svg>